<svg xmlns="http://www.w3.org/2000/svg">
  <symbol id="cart" viewBox="0 0 24 24">
    <path d="M7 4h-2l-1 2h2l3.6 7.59-1.35 2.44A1.99 1.99 0 0 0 10 19h9v-2h-9l1.1-2h7.45c.75 0 1.41-.41 1.75-1.03l3.58-6.49A1 1 0 0 0 23 4H6.21l-.94-2H1v2h3l3.6 7.59-.95 1.72A1.99 1.99 0 0 0 8 17h11v-2H9.42l.93-1.68L7 4z"/>
  </symbol>
  <symbol id="user" viewBox="0 0 24 24">
    <path d="M12 12c2.76 0 5-2.24 5-5s-2.24-5-5-5-5 2.24-5 5 2.24 5 5 5zm0 2c-3.33 0-10 1.67-10 5v3h20v-3c0-3.33-6.67-5-10-5z"/>
  </symbol>
  <symbol id="search" viewBox="0 0 24 24">
    <path d="M15.5 14h-.79l-.28-.27A6.471 6.471 0 0016 9.5 6.5 6.5 0 109.5 16c1.61 0 3.09-.59 4.23-1.57l.27.28v.79l5 4.99L20.49 19l-4.99-5zm-6 0C7.01 14 5 11.99 5 9.5S7.01 5 9.5 5 14 7.01 14 9.5 11.99 14 9.5 14z"/>
  </symbol>
</svg>
