<svg width="20" height="20" viewBox="0 0 20 20" fill="none" xmlns="http://www.w3.org/2000/svg">
<g clip-path="url(#clip0_604_7174)">
<path d="M20 0H0V20H20V0Z" fill="white" fill-opacity="0.01"/>
<path d="M9.79883 4C13.0015 4 15.5984 6.5962 15.5986 9.79883C15.5986 11.039 15.2071 12.187 14.5439 13.1299L16.3516 14.9375C16.742 15.328 16.7421 15.9611 16.3516 16.3516C15.9611 16.742 15.328 16.742 14.9375 16.3516L13.1299 14.5439C12.187 15.2071 11.039 15.5986 9.79883 15.5986C6.59621 15.5984 4 13.0015 4 9.79883C4.00019 6.59632 6.59632 4.0002 9.79883 4ZM9.79883 6C7.70088 6.0002 6.00019 7.70091 6 9.79883C6 11.8969 7.70076 13.5984 9.79883 13.5986C11.8971 13.5986 13.5986 11.897 13.5986 9.79883C13.5984 7.70078 11.897 6 9.79883 6Z" fill="#A0A0A0"/>
</g>
<defs>
<clipPath id="clip0_604_7174">
<rect width="20" height="20" fill="white"/>
</clipPath>
</defs>
</svg>
