<svg width="22" height="15" viewBox="0 0 22 15" fill="none" xmlns="http://www.w3.org/2000/svg">
<path d="M20.8 2.65039C20.95 3.30041 21.1 4.35041 21.15 5.70041L21.2 7.5504V9.5004C21.15 10.9004 21 11.9504 20.85 12.6004C20.75 13.0004 20.5 13.4004 20.2 13.7004C19.9 14.0004 19.5 14.2504 19.05 14.3504C18.4 14.5004 16.9 14.6504 14.5 14.7504L11 14.8004L7.59999 14.7504C5.19999 14.6504 3.69998 14.5504 3.04999 14.3504C2.59999 14.2504 2.19998 14.0004 1.89998 13.7004C1.5 13.4004 1.29998 13.0004 1.14998 12.6004C0.999984 11.9004 0.849984 10.9004 0.799992 9.5004L0.75 7.65041C0.75 7.1004 0.75 6.5004 0.799992 5.80039C0.849984 4.45039 0.999984 3.40039 1.14998 2.7504C1.29998 2.20039 1.5 1.80041 1.84999 1.50041C2.19998 1.20041 2.55 0.950398 3 0.800398C3.64999 0.650398 5.14999 0.500399 7.54999 0.450406L11 0.400391L14.4 0.450406C16.8 0.500399 18.35 0.650398 19 0.800398C19.45 0.900406 19.85 1.15039 20.15 1.45039C20.45 1.80041 20.7 2.20039 20.8 2.65039ZM8.89999 10.7004L14.25 7.65041L8.89999 4.60039V10.7004Z" fill="#CCCCCC"/>
</svg>
