<svg width="22" height="18" viewBox="0 0 22 18" fill="none" xmlns="http://www.w3.org/2000/svg">
<path d="M19.3619 4.75881C19.2635 12.1787 14.5187 17.2609 7.43573 17.5801C4.51482 17.7138 2.39872 16.7703 0.557129 15.6004C2.71595 15.9449 5.39288 15.082 6.82456 13.8564C4.70846 13.6506 3.45559 12.5735 2.86936 10.8401C3.48083 10.9458 4.12502 10.9177 4.70594 10.7947C2.79642 10.1555 1.43283 8.97531 1.36238 6.50232C1.89823 6.74628 2.45684 6.97561 3.19896 7.02082C1.7699 6.20797 0.713191 3.23654 1.92347 1.27166C4.04442 3.59639 6.59567 5.49344 10.7849 5.75007C9.73312 1.25404 15.6911 -1.18403 18.1846 1.83775C19.2387 1.63383 20.0967 1.23391 20.922 0.79863C20.5823 1.84273 19.9281 2.57239 19.1307 3.1561C20.0061 3.03792 20.7809 2.82401 21.4429 2.49693C21.0323 3.34988 20.1344 4.11476 19.3619 4.75881Z" fill="#CCCCCC"/>
</svg>
