<svg width="73" height="28" viewBox="0 0 73 28" fill="none" xmlns="http://www.w3.org/2000/svg">
<path d="M20.349 12.37C19.97 12.7513 19.6798 13.2115 19.499 13.7177C19.3182 14.224 19.2513 14.7639 19.303 15.299L19.285 15.281C19.3382 15.9109 19.2532 16.5447 19.0361 17.1384C18.819 17.732 18.475 18.2711 18.0281 18.7181C17.5811 19.165 17.042 19.5091 16.4483 19.7261C15.8547 19.9432 15.2208 20.0282 14.591 19.975L14.609 19.993C13.8556 19.9229 13.0989 20.0868 12.442 20.4625C11.7852 20.8382 11.2602 21.4073 10.9387 22.0923C10.6172 22.7773 10.5147 23.5447 10.6453 24.2901C10.776 25.0354 11.1333 25.7223 11.6686 26.2571C12.2039 26.7919 12.8911 27.1486 13.6365 27.2785C14.382 27.4085 15.1493 27.3053 15.834 26.9832C16.5187 26.661 17.0873 26.1356 17.4624 25.4784C17.8375 24.8212 18.0008 24.0644 17.93 23.311L17.949 23.329C17.8958 22.6992 17.9807 22.0653 18.1978 21.4716C18.4149 20.878 18.759 20.3389 19.2059 19.8919C19.6529 19.445 20.192 19.1009 20.7856 18.8839C21.3793 18.6668 22.0131 18.5818 22.643 18.635L22.624 18.617C23.2394 18.6723 23.8589 18.5714 24.425 18.3236C24.991 18.0758 25.4854 17.6891 25.8622 17.1994C26.239 16.7097 26.4862 16.1327 26.5806 15.5221C26.6751 14.9114 26.6139 14.2868 26.4027 13.706C26.1915 13.1253 25.8371 12.6073 25.3724 12.2C24.9077 11.7927 24.3477 11.5093 23.7443 11.3761C23.1409 11.2429 22.5136 11.2641 21.9206 11.4378C21.3276 11.6116 20.7881 11.9322 20.352 12.37H20.349Z" fill="white"/>
<path d="M12.9718 17.635L12.9528 17.617C13.4881 17.6709 14.0287 17.6052 14.5356 17.4246C15.0424 17.244 15.5028 16.9531 15.8834 16.5728C16.2639 16.1925 16.5553 15.7323 16.7362 15.2256C16.9172 14.7189 16.9833 14.1784 16.9298 13.643L16.9488 13.661C16.8956 13.0311 16.9806 12.3973 17.1976 11.8036C17.4147 11.21 17.7588 10.6709 18.2057 10.2239C18.6527 9.77702 19.1918 9.43292 19.7854 9.21592C20.3791 8.99878 21.0129 8.91385 21.6428 8.96702L21.6238 8.94902C22.3773 9.01982 23.1342 8.85638 23.7914 8.48112C24.4487 8.10586 24.9741 7.53699 25.2961 6.85212C25.6181 6.16726 25.721 5.39973 25.5908 4.65422C25.4606 3.90871 25.1036 3.22153 24.5684 2.68639C24.0333 2.15126 23.3461 1.79422 22.6006 1.664C21.8551 1.53377 21.0876 1.63668 20.4027 1.9587C19.7178 2.28071 19.149 2.80616 18.7737 3.46337C18.3984 4.12057 18.235 4.87754 18.3058 5.63102L18.2878 5.61202C18.3411 6.24191 18.2563 6.87585 18.0393 7.46957C17.8223 8.06329 17.4782 8.60248 17.0313 9.04952C16.5843 9.49642 16.0451 9.84052 15.4514 10.0575C14.8576 10.2745 14.2237 10.3593 13.5938 10.306L13.6118 10.325C13.0765 10.2711 12.5358 10.3368 12.029 10.5174C11.5222 10.6979 11.0618 10.9889 10.6812 11.3692C10.3006 11.7495 10.0093 12.2097 9.82834 12.7164C9.64744 13.2231 9.58134 13.7636 9.63484 14.299L9.61684 14.281C9.66984 14.9108 9.58474 15.5446 9.36764 16.1382C9.15044 16.7317 8.80644 17.2708 8.35954 17.7177C7.9126 18.1646 7.37356 18.5086 6.78 18.7258C6.18644 18.9429 5.55265 19.028 4.92284 18.975L4.94084 18.993C4.18736 18.9222 3.43039 19.0856 2.77318 19.4609C2.11598 19.8362 1.59053 20.405 1.26852 21.0899C0.946502 21.7748 0.843582 22.5423 0.973812 23.2878C1.10404 24.0333 1.46108 24.7205 1.99621 25.2556C2.53135 25.7908 3.21853 26.1478 3.96404 26.278C4.70955 26.4082 5.47708 26.3053 6.16195 25.9833C6.84681 25.6613 7.41568 25.1359 7.79094 24.4787C8.16624 23.8214 8.32964 23.0645 8.25884 22.311L8.27784 22.329C8.22464 21.6991 8.30964 21.0653 8.52674 20.4716C8.74374 19.878 9.08784 19.3389 9.53474 18.8919C9.98174 18.445 10.5208 18.1009 11.1144 17.8839C11.7081 17.6668 12.3419 17.5818 12.9718 17.635Z" fill="white"/>
<path d="M6.2699 15.628C6.64892 15.2468 6.9391 14.7866 7.11974 14.2803C7.30038 13.774 7.36702 13.234 7.3149 12.699L7.33389 12.717C7.28069 12.087 7.36565 11.4529 7.58286 10.8591C7.80007 10.2653 8.1443 9.72606 8.5915 9.27906C9.0387 8.83208 9.578 8.48809 10.1719 8.27114C10.7658 8.05418 11.3999 7.96948 12.0299 8.02296L12.0109 8.00496C12.7641 8.07553 13.5208 7.91204 14.1777 7.5368C14.8346 7.16157 15.3597 6.59284 15.6816 5.90819C16.0034 5.22353 16.1062 4.45628 15.976 3.71105C15.8458 2.96582 15.4888 2.2789 14.9539 1.74396C14.419 1.20902 13.732 0.852103 12.9868 0.721883C12.2416 0.591653 11.4743 0.694473 10.7897 1.01629C10.105 1.33811 9.5363 1.86328 9.1611 2.52018C8.7858 3.17708 8.6223 3.93374 8.6929 4.68696L8.6749 4.66896C8.7281 5.29881 8.6431 5.93268 8.426 6.52632C8.2089 7.11996 7.86492 7.65907 7.41796 8.10603C6.97101 8.55299 6.43189 8.89702 5.83825 9.11406C5.24461 9.33116 4.61075 9.41616 3.9809 9.36296L3.9989 9.38096C3.38347 9.32576 2.76406 9.42686 2.19808 9.67476C1.6321 9.92266 1.13785 10.3095 0.761139 10.7993C0.384429 11.289 0.137449 11.866 0.0430689 12.4766C-0.0513011 13.0873 0.0099889 13.7119 0.221259 14.2925C0.432529 14.8732 0.786959 15.3911 1.25169 15.7983C1.71642 16.2056 2.27642 16.4889 2.8798 16.6221C3.48317 16.7552 4.1104 16.7339 4.70337 16.5602C5.29633 16.3864 5.83583 16.0658 6.27189 15.628H6.2699Z" fill="white"/>
<path d="M39.0838 18.1V21H37.3438C36.1038 21 35.1371 20.7 34.4438 20.1C33.7504 19.4867 33.4038 18.4933 33.4038 17.12V12.68H32.0438V9.84H33.4038V7.12H36.8238V9.84H39.0638V12.68H36.8238V17.16C36.8238 17.4933 36.9038 17.7333 37.0638 17.88C37.2238 18.0267 37.4904 18.1 37.8638 18.1H39.0838ZM42.7088 8.68C42.1088 8.68 41.6154 8.50667 41.2288 8.16C40.8554 7.8 40.6688 7.36 40.6688 6.84C40.6688 6.30667 40.8554 5.86667 41.2288 5.52C41.6154 5.16 42.1088 4.98 42.7088 4.98C43.2954 4.98 43.7754 5.16 44.1488 5.52C44.5354 5.86667 44.7288 6.30667 44.7288 6.84C44.7288 7.36 44.5354 7.8 44.1488 8.16C43.7754 8.50667 43.2954 8.68 42.7088 8.68ZM44.4088 9.84V21H40.9888V9.84H44.4088ZM46.2072 15.4C46.2072 14.2533 46.4206 13.2467 46.8472 12.38C47.2872 11.5133 47.8806 10.8467 48.6272 10.38C49.3739 9.91333 50.2072 9.68 51.1272 9.68C51.9139 9.68 52.6006 9.84 53.1872 10.16C53.7872 10.48 54.2472 10.9 54.5672 11.42V9.84H57.9872V21H54.5672V19.42C54.2339 19.94 53.7672 20.36 53.1672 20.68C52.5806 21 51.8939 21.16 51.1072 21.16C50.2006 21.16 49.3739 20.9267 48.6272 20.46C47.8806 19.98 47.2872 19.3067 46.8472 18.44C46.4206 17.56 46.2072 16.5467 46.2072 15.4ZM54.5672 15.42C54.5672 14.5667 54.3272 13.8933 53.8472 13.4C53.3806 12.9067 52.8072 12.66 52.1272 12.66C51.4472 12.66 50.8672 12.9067 50.3872 13.4C49.9206 13.88 49.6872 14.5467 49.6872 15.4C49.6872 16.2533 49.9206 16.9333 50.3872 17.44C50.8672 17.9333 51.4472 18.18 52.1272 18.18C52.8072 18.18 53.3806 17.9333 53.8472 17.44C54.3272 16.9467 54.5672 16.2733 54.5672 15.42ZM67.2614 9.72C68.5681 9.72 69.6081 10.1467 70.3814 11C71.1681 11.84 71.5614 13 71.5614 14.48V21H68.1614V14.94C68.1614 14.1933 67.9681 13.6133 67.5814 13.2C67.1948 12.7867 66.6748 12.58 66.0214 12.58C65.3681 12.58 64.8481 12.7867 64.4614 13.2C64.0748 13.6133 63.8814 14.1933 63.8814 14.94V21H60.4614V9.84H63.8814V11.32C64.2281 10.8267 64.6948 10.44 65.2814 10.16C65.8681 9.86667 66.5281 9.72 67.2614 9.72Z" fill="white"/>
</svg>
